<svg xmlns="http://www.w3.org/2000/svg" viewBox="0 0 1724 611" role="img" aria-labelledby="title desc">
  <title id="title">Drift PDX rose banner logo</title>
  <desc id="desc">Red Drift PDX banner with floral line art, double border, and bilingual subtitle.</desc>
  <defs>
    <linearGradient id="bg" x1="0%" y1="0%" x2="100%" y2="100%">
      <stop offset="0%" stop-color="#a7131e"/>
      <stop offset="48%" stop-color="#cb1f2a"/>
      <stop offset="100%" stop-color="#a8141f"/>
    </linearGradient>
    <radialGradient id="glowLeft" cx="20%" cy="48%" r="60%">
      <stop offset="0%" stop-color="#f15a57" stop-opacity="0.28"/>
      <stop offset="100%" stop-color="#f15a57" stop-opacity="0"/>
    </radialGradient>
    <radialGradient id="glowRight" cx="82%" cy="44%" r="56%">
      <stop offset="0%" stop-color="#ff9361" stop-opacity="0.22"/>
      <stop offset="100%" stop-color="#ff9361" stop-opacity="0"/>
    </radialGradient>
    <pattern id="fan" width="96" height="64" patternUnits="userSpaceOnUse" patternTransform="rotate(-8)">
      <path d="M0 64 Q48 8 96 64" fill="none" stroke="#f7a16e" stroke-opacity="0.07" stroke-width="2"/>
      <path d="M0 48 Q48 -8 96 48" fill="none" stroke="#f7a16e" stroke-opacity="0.06" stroke-width="2"/>
      <path d="M0 80 Q48 24 96 80" fill="none" stroke="#f7a16e" stroke-opacity="0.05" stroke-width="2"/>
    </pattern>
    <filter id="softGlow" x="-20%" y="-20%" width="140%" height="140%">
      <feGaussianBlur stdDeviation="8"/>
    </filter>
    <style>
      .outline {
        fill: none;
        stroke: #fff7f1;
        stroke-width: 3;
      }
      .floral {
        fill: none;
        stroke: #f6a173;
        stroke-width: 3;
        stroke-linecap: round;
        stroke-linejoin: round;
        opacity: 0.34;
      }
      .leaf {
        fill: none;
        stroke: #f6a173;
        stroke-width: 2.2;
        stroke-linecap: round;
        stroke-linejoin: round;
        opacity: 0.32;
      }
      .brand {
        fill: #fff;
        font-family: "Arial Black", Impact, Haettenschweiler, "Segoe UI", sans-serif;
        font-size: 248px;
        font-weight: 900;
        letter-spacing: -8px;
      }
      .tagline {
        fill: #fff;
        font-family: "Segoe UI", Arial, sans-serif;
        font-size: 48px;
        font-weight: 300;
        letter-spacing: 11px;
      }
      .tagline-jp {
        letter-spacing: 3px;
      }
    </style>
  </defs>

  <rect width="1724" height="611" fill="url(#bg)"/>
  <rect width="1724" height="611" fill="url(#glowLeft)"/>
  <rect width="1724" height="611" fill="url(#glowRight)"/>
  <rect x="0" y="0" width="1724" height="611" fill="url(#fan)" opacity="0.5"/>

  <g opacity="0.16" filter="url(#softGlow)">
    <circle cx="364" cy="234" r="184" fill="#f05a57"/>
    <circle cx="930" cy="250" r="196" fill="#df3c43"/>
    <circle cx="1480" cy="330" r="188" fill="#df3f46"/>
  </g>

  <g transform="translate(140 96)">
    <path class="floral" d="M32 178C32 102 92 42 168 42c76 0 136 60 136 136 0 48-24 92-64 118-18 12-30 30-34 50-2-22-12-40-32-56-40-24-70-76-70-128Z"/>
    <path class="floral" d="M122 180c22-56 78-88 138-76-18 10-34 24-46 44 32 4 60 22 78 52-30-2-56 6-78 24-6-22-16-36-34-44 0 24-8 44-24 62-10-24-18-42-34-62Z"/>
    <path class="leaf" d="M16 290c-34 20-56 50-64 90 34-4 62-18 86-42"/>
    <path class="leaf" d="M298 6c14-36 38-64 72-82-4 34-18 64-44 90"/>
    <path class="leaf" d="M346 62c28-20 62-30 102-28-22 28-52 42-90 44"/>
  </g>

  <g transform="translate(1064 34)">
    <path class="floral" d="M0 110c34-58 92-86 160-72-16 14-26 28-34 48 40 2 74 22 96 58-38-6-74 0-106 20-8-24-22-40-44-50-4 24-16 46-36 66-12-28-22-46-36-70Z"/>
    <path class="floral" d="M238 168c12-74 68-126 144-128 76-2 136 48 148 120-24-16-48-24-76-24 18 30 22 60 10 92-26-26-56-38-90-42-8-20-18-34-36-46-8 22-22 40-42 54-10-24-24-46-58-26Z"/>
    <path class="leaf" d="M188 12c10-32 30-56 58-76-2 30-12 58-32 84"/>
    <path class="leaf" d="M296 0c24-20 54-30 90-28-16 26-42 42-74 50"/>
    <path class="leaf" d="M540 92c26-24 56-38 96-42-18 28-42 48-74 58"/>
  </g>

  <g transform="translate(480 330) rotate(-8)">
    <path class="floral" d="M0 78c22-42 62-66 112-58-14 8-24 20-30 36 28 2 52 14 68 38-26-4-48 0-70 16-8-18-20-28-36-34 0 18-8 34-22 50C12 116 6 98 0 78Z"/>
  </g>

  <rect x="30" y="30" width="1664" height="551" class="outline"/>
  <rect x="40" y="40" width="1644" height="531" class="outline" opacity="0.82"/>

  <text x="862" y="354" text-anchor="middle" class="brand">DRIFT-PDX</text>

  <line x1="152" y1="418" x2="1572" y2="418" stroke="#fff" stroke-width="3" opacity="0.98"/>
  <line x1="152" y1="529" x2="1572" y2="529" stroke="#fff" stroke-width="3" opacity="0.98"/>

  <text x="162" y="505" class="tagline">SCALE RC DRIFT CIRCUIT - <tspan class="tagline-jp">&#x30DD;&#x30FC;&#x30C8;&#x30E9;&#x30F3;&#x30C9;&#x30C9;&#x30EA;&#x30D5;&#x30C8;</tspan></text>
</svg>
