<svg width="1800" height="560" viewBox="0 0 1800 560" fill="none" xmlns="http://www.w3.org/2000/svg">
  <defs>
    <linearGradient id="steelFill" x1="0" y1="0" x2="1" y2="1">
      <stop offset="0%" stop-color="#FCFCFD"/>
      <stop offset="18%" stop-color="#D8DBDF"/>
      <stop offset="48%" stop-color="#8D949B"/>
      <stop offset="74%" stop-color="#F2F4F6"/>
      <stop offset="100%" stop-color="#697078"/>
    </linearGradient>
    <linearGradient id="graphiteFill" x1="0" y1="0" x2="0" y2="1">
      <stop offset="0%" stop-color="#353B42"/>
      <stop offset="100%" stop-color="#0C0F12"/>
    </linearGradient>
    <linearGradient id="smokeLine" x1="0" y1="0" x2="1" y2="0">
      <stop offset="0%" stop-color="#FFFFFF" stop-opacity="0.46"/>
      <stop offset="100%" stop-color="#FFFFFF" stop-opacity="0"/>
    </linearGradient>
    <filter id="softShadow" x="-20%" y="-30%" width="140%" height="180%">
      <feDropShadow dx="0" dy="22" stdDeviation="20" flood-color="#000000" flood-opacity="0.28"/>
    </filter>
  </defs>

  <rect width="1800" height="560" fill="transparent"/>

  <g filter="url(#softShadow)">
    <g transform="translate(94 128)">
      <path d="M62 30H234L190 72H130L92 116H186L232 158H64L0 94L62 30Z" fill="url(#graphiteFill)" stroke="#0A0C0F" stroke-width="8" stroke-linejoin="round"/>
      <path d="M94 60H172L144 86H112L94 106H162L188 128H94L56 92L94 60Z" fill="url(#steelFill)"/>

      <path d="M286 30H430C490 30 536 44 568 72C598 98 614 132 614 174C614 216 598 250 566 278C532 306 486 320 428 320H286L332 278H422C458 278 486 268 506 248C526 228 536 202 536 172C536 144 526 120 506 102C486 84 458 74 422 74H332L286 30Z" fill="url(#graphiteFill)" stroke="#0A0C0F" stroke-width="8" stroke-linejoin="round"/>
      <path d="M354 104H418C442 104 460 110 474 122C486 134 492 150 492 170C492 190 486 206 474 218C460 230 442 236 418 236H354L388 206H412C422 206 430 202 436 194C442 188 446 180 446 170C446 160 442 152 436 146C430 138 422 134 412 134H388L354 104Z" fill="url(#steelFill)"/>

      <path d="M662 30H756L646 320H554L662 30Z" fill="url(#steelFill)"/>

      <path d="M788 30H882L770 320H676L788 30Z" fill="url(#graphiteFill)" stroke="#0A0C0F" stroke-width="8" stroke-linejoin="round"/>

      <path d="M920 30H1032V320H920V30Z" fill="url(#graphiteFill)" stroke="#0A0C0F" stroke-width="8" stroke-linejoin="round"/>
      <rect x="952" y="64" width="48" height="222" fill="url(#steelFill)"/>

      <path d="M1080 30H1174L1064 320H970L1080 30Z" fill="url(#steelFill)"/>

      <path d="M1212 30H1388L1348 72H1272V320H1180V72H1170L1212 30Z" fill="url(#graphiteFill)" stroke="#0A0C0F" stroke-width="8" stroke-linejoin="round"/>
      <path d="M1258 72H1318V286H1270V106H1224L1258 72Z" fill="url(#steelFill)"/>

      <path d="M1456 18C1500 18 1536 26 1566 42L1532 90C1510 78 1486 72 1460 72C1432 72 1418 80 1418 96C1418 104 1424 112 1436 118C1448 124 1468 132 1498 140C1540 152 1570 170 1588 194C1604 216 1612 242 1612 272C1612 318 1596 354 1564 380C1530 406 1484 420 1428 420C1380 420 1334 408 1290 384L1326 330C1362 350 1396 360 1430 360C1464 360 1482 350 1482 332C1482 322 1476 314 1462 308C1448 300 1426 292 1396 282C1358 270 1330 254 1312 234C1294 214 1286 188 1286 156C1286 114 1300 80 1328 54C1356 30 1398 18 1456 18Z" fill="url(#graphiteFill)" stroke="#0A0C0F" stroke-width="8" stroke-linejoin="round"/>
      <path d="M1448 94C1418 94 1402 102 1402 118C1402 126 1408 132 1420 138C1432 142 1452 150 1482 158C1512 166 1534 178 1548 194C1562 208 1568 228 1568 252C1568 284 1558 310 1538 330C1516 350 1484 360 1440 360C1406 360 1372 350 1338 332L1368 292C1396 308 1422 316 1446 316C1470 316 1482 308 1482 294C1482 286 1478 280 1468 276C1458 270 1440 264 1414 256C1380 246 1356 232 1340 214C1326 196 1318 174 1318 148C1318 116 1328 90 1350 70C1370 50 1402 40 1448 40C1482 40 1512 46 1538 58L1510 96C1492 88 1472 84 1448 84V94Z" fill="url(#steelFill)"/>

      <path d="M760 368C846 334 946 316 1060 316C1172 316 1280 334 1386 370" stroke="url(#smokeLine)" stroke-width="14" stroke-linecap="round"/>
      <path d="M706 414C800 378 918 360 1060 360C1200 360 1328 382 1444 426" stroke="url(#smokeLine)" stroke-width="8" stroke-linecap="round"/>
    </g>

    <g transform="translate(124 448)">
      <rect x="0" y="0" width="336" height="12" rx="6" fill="#0A0C0F"/>
      <rect x="352" y="0" width="190" height="12" rx="6" fill="#151A1F"/>
      <rect x="558" y="0" width="142" height="12" rx="6" fill="#2A3138"/>
    </g>
  </g>
</svg>
