<svg width="1400" height="820" viewBox="0 0 1400 820" fill="none" xmlns="http://www.w3.org/2000/svg">
  <defs>
    <linearGradient id="panel" x1="0" y1="0" x2="1" y2="1">
      <stop offset="0%" stop-color="#171C21"/>
      <stop offset="100%" stop-color="#090B0E"/>
    </linearGradient>
    <linearGradient id="steel2" x1="0" y1="0" x2="1" y2="1">
      <stop offset="0%" stop-color="#FFFFFF"/>
      <stop offset="20%" stop-color="#D7DBDF"/>
      <stop offset="52%" stop-color="#848B92"/>
      <stop offset="76%" stop-color="#F4F6F7"/>
      <stop offset="100%" stop-color="#646B73"/>
    </linearGradient>
    <linearGradient id="line2" x1="0" y1="0" x2="1" y2="0">
      <stop offset="0%" stop-color="#FFFFFF" stop-opacity="0.46"/>
      <stop offset="100%" stop-color="#FFFFFF" stop-opacity="0"/>
    </linearGradient>
    <filter id="shadow2" x="-20%" y="-20%" width="140%" height="160%">
      <feDropShadow dx="0" dy="18" stdDeviation="18" flood-color="#000000" flood-opacity="0.3"/>
    </filter>
  </defs>

  <rect width="1400" height="820" rx="36" fill="url(#panel)"/>

  <g filter="url(#shadow2)">
    <text x="118" y="272" fill="url(#steel2)" font-family="Ethnocentric, Inter, Arial, sans-serif" font-size="128" font-weight="900" letter-spacing="-1.4">RCDriftSync</text>
    <rect x="120" y="318" width="1160" height="6" rx="3" fill="url(#line2)"/>

    <g transform="translate(120 386)">
      <rect x="0" y="0" width="136" height="136" rx="28" fill="none" stroke="url(#steel2)" stroke-width="14"/>
      <path d="M38 70H96" stroke="url(#steel2)" stroke-width="14" stroke-linecap="round"/>
      <path d="M70 38L98 70L70 102" stroke="url(#steel2)" stroke-width="14" stroke-linecap="round" stroke-linejoin="round"/>
    </g>

    <text x="292" y="472" fill="#E8EBEE" font-family="Ethnocentric, Inter, Arial, sans-serif" font-size="40" font-weight="800" letter-spacing="2">DRIFT COMPETITION CONTROL</text>
    <text x="292" y="542" fill="#9EA6AE" font-family="Ethnocentric, Inter, Arial, sans-serif" font-size="21" font-weight="700" letter-spacing="5">QUALIFYING  •  BRACKETS  •  LIVE RESULTS</text>

    <path d="M122 646C264 698 420 724 590 724C760 724 922 700 1076 650" stroke="url(#line2)" stroke-width="12" stroke-linecap="round"/>
    <path d="M194 690C318 724 450 742 590 742C734 742 874 724 1014 688" stroke="url(#line2)" stroke-width="6" stroke-linecap="round"/>
  </g>
</svg>
