<svg width="1800" height="520" viewBox="0 0 1800 520" fill="none" xmlns="http://www.w3.org/2000/svg">
  <defs>
    <linearGradient id="bgGlow" x1="0" y1="0" x2="1" y2="1">
      <stop offset="0%" stop-color="#1A1F24"/>
      <stop offset="100%" stop-color="#090B0E"/>
    </linearGradient>
    <linearGradient id="steel" x1="0" y1="0" x2="1" y2="1">
      <stop offset="0%" stop-color="#FDFDFD"/>
      <stop offset="22%" stop-color="#D0D4D8"/>
      <stop offset="52%" stop-color="#7A828A"/>
      <stop offset="74%" stop-color="#F5F6F7"/>
      <stop offset="100%" stop-color="#626A72"/>
    </linearGradient>
    <linearGradient id="graphite" x1="0" y1="0" x2="0" y2="1">
      <stop offset="0%" stop-color="#4C545C"/>
      <stop offset="100%" stop-color="#1B2026"/>
    </linearGradient>
    <linearGradient id="divider" x1="0" y1="0" x2="1" y2="0">
      <stop offset="0%" stop-color="#FFFFFF" stop-opacity="0.42"/>
      <stop offset="100%" stop-color="#FFFFFF" stop-opacity="0"/>
    </linearGradient>
    <filter id="shadow" x="-20%" y="-20%" width="140%" height="160%">
      <feDropShadow dx="0" dy="16" stdDeviation="16" flood-color="#000000" flood-opacity="0.28"/>
    </filter>
  </defs>

  <rect width="1800" height="520" rx="28" fill="url(#bgGlow)"/>

  <g filter="url(#shadow)">
    <g transform="translate(106 120)">
      <circle cx="112" cy="132" r="92" fill="none" stroke="url(#steel)" stroke-width="24"/>
      <circle cx="112" cy="132" r="56" fill="none" stroke="url(#graphite)" stroke-width="20"/>
      <path d="M56 132H168" stroke="url(#steel)" stroke-width="18" stroke-linecap="round"/>
      <path d="M112 76L160 132L112 188" stroke="url(#steel)" stroke-width="18" stroke-linecap="round" stroke-linejoin="round"/>
      <path d="M18 214C74 248 142 266 222 268" stroke="url(#divider)" stroke-width="10" stroke-linecap="round"/>
      <path d="M0 250C84 296 176 318 276 316" stroke="url(#divider)" stroke-width="6" stroke-linecap="round"/>
    </g>

    <g transform="translate(382 104)">
      <text x="0" y="138" fill="url(#steel)" font-family="Ethnocentric, Inter, Arial, sans-serif" font-size="104" font-weight="900" letter-spacing="-1">RC</text>
      <text x="190" y="138" fill="url(#steel)" font-family="Ethnocentric, Inter, Arial, sans-serif" font-size="104" font-weight="900" letter-spacing="-1.2">DriftSync</text>

      <rect x="2" y="170" width="1020" height="4" rx="2" fill="url(#divider)"/>
      <text x="8" y="234" fill="#BAC1C8" font-family="Ethnocentric, Inter, Arial, sans-serif" font-size="24" font-weight="700" letter-spacing="6">LIVE RC DRIFT COMPETITION CONTROL</text>

      <path d="M896 56L1028 56" stroke="url(#divider)" stroke-width="8" stroke-linecap="round"/>
      <path d="M872 86L1028 86" stroke="url(#divider)" stroke-width="4" stroke-linecap="round"/>
    </g>
  </g>
</svg>
