<?xml version="1.0" encoding="UTF-8"?>
<svg xmlns="http://www.w3.org/2000/svg" viewBox="0 0 3539 497" width="3539" height="497">
<path fill="#060304" d="M 10 443 L 2545 475 L 2589 435 L 3424 401 L 3527 272 L 3314 269 L 3498 100 L 3182 103 L 3119 130 L 3028 100 L 2566 98 L 2657 19 L 1695 19 L 1610 99 L 1407 102 L 1376 43 L 1297 11 L 801 11 L 715 46 L 632 11 L 84 10 L 186 115 Z" fill-rule="evenodd"/>
<path fill="#c90809" d="M 1991 435 L 1921 435 L 1920 436 L 1870 436 L 1869 437 L 1833 436 L 1832 437 L 1811 437 L 1809 438 L 1809 440 L 1861 440 L 1862 439 L 1906 440 L 1907 439 L 1991 437 Z M 1882 422 L 1882 424 L 1997 428 L 2078 428 L 2106 430 L 2107 433 L 2226 425 L 2224 422 L 2178 420 L 2065 421 L 2064 418 L 2056 418 L 2055 421 L 2048 421 L 2047 417 L 2044 422 L 2040 421 L 2040 417 L 2016 417 L 2015 422 L 1956 422 L 1954 417 L 1916 417 L 1914 421 Z M 3444 307 L 3443 306 L 3433 306 L 3432 307 L 3390 307 L 3389 308 L 3387 308 L 3380 313 L 3380 315 L 3362 336 L 3360 340 L 3350 350 L 3350 352 L 3406 352 L 3407 351 L 3409 351 L 3426 333 L 3428 329 L 3433 323 L 3434 319 L 3436 316 L 3444 309 Z M 2599 275 L 2599 279 L 2600 281 L 2603 281 L 2607 277 L 2608 277 L 2608 275 L 2605 275 L 2604 276 Z M 2859 198 L 2819 199 L 2803 197 L 2788 219 L 2774 249 L 2769 255 L 2746 304 L 2731 330 L 2730 336 L 2721 349 L 2721 352 L 2778 353 L 2783 350 L 2796 321 L 2833 254 L 2844 229 L 2848 225 Z M 3059 209 L 3010 208 L 3006 199 L 3002 195 L 2995 196 L 2997 215 L 2993 231 L 2983 250 L 2979 254 L 2958 297 L 2946 317 L 2941 330 L 2930 349 L 2930 352 L 2992 353 L 2995 351 L 3062 214 Z M 3069 309 L 3068 322 L 3074 338 L 3093 350 L 3106 352 L 3288 352 L 3320 312 L 3320 309 L 3171 308 L 3157 303 L 3148 292 L 3148 279 L 3174 218 L 3178 215 L 3178 200 L 3173 205 L 3169 205 L 3168 202 L 3144 203 L 3135 197 L 3135 193 L 3131 195 L 3132 201 L 3121 208 L 3109 226 L 3088 270 L 3082 277 Z M 2734 196 L 2729 191 L 2721 196 L 2712 194 L 2709 198 L 2701 193 L 2692 196 L 2687 188 L 2616 280 L 2607 287 L 2597 288 L 2588 267 L 2575 184 L 2527 186 L 2521 182 L 2545 345 L 2537 357 L 2457 432 L 2529 430 L 2733 203 Z M 2469 194 L 2456 184 L 2441 182 L 2435 186 L 2180 185 L 2187 203 L 2206 214 L 2372 219 L 2387 229 L 2391 243 L 2372 276 L 2348 297 L 2328 302 L 2147 303 L 2097 353 L 2340 352 L 2386 339 L 2421 319 L 2448 287 L 2473 230 Z M 3203 148 L 3195 148 L 3194 149 L 3192 149 L 3190 151 L 3186 151 L 3180 154 L 3178 156 L 3173 157 L 3172 158 L 3172 161 L 3174 161 L 3177 158 L 3183 158 L 3188 155 L 3192 154 L 3194 152 L 3199 152 L 3200 151 L 3202 151 L 3203 150 Z M 2514 145 L 2515 156 L 2518 163 L 2518 172 L 2519 173 L 2520 178 L 2522 178 L 2523 177 L 2523 172 L 2520 166 L 2520 159 L 2521 158 L 2524 158 L 2525 159 L 2525 162 L 2529 162 L 2531 160 L 2531 155 L 2528 152 L 2528 149 L 2530 147 L 2536 147 L 2537 146 L 2562 146 L 2563 147 L 2563 152 L 2567 155 L 2567 159 L 2569 159 L 2570 158 L 2570 156 L 2569 155 L 2569 146 L 2568 144 L 2515 144 Z M 2216 107 L 2223 109 L 2268 112 L 2286 108 L 2294 111 L 2330 96 L 2499 95 L 2549 52 L 2304 52 L 2278 56 L 2257 65 L 2232 81 L 2218 98 L 2213 100 Z" fill-rule="evenodd"/>
<path fill="#5c4444" d="M 1697 461 L 1697 463 L 1828 463 L 1828 461 Z M 1644 461 L 1644 463 L 1667 463 L 1667 461 Z M 1509 461 L 1509 463 L 1589 463 L 1589 461 Z M 1127 459 L 1127 461 L 1158 461 L 1158 459 Z M 2366 458 L 2366 463 L 2365 464 L 2365 475 L 2366 477 L 2368 477 L 2368 475 L 2367 474 L 2367 463 L 2368 462 L 2368 458 Z M 1027 458 L 1027 460 L 1056 460 L 1056 458 Z M 2013 436 L 2013 438 L 2036 438 L 2036 436 Z M 1644 442 L 1379 434 L 1474 426 L 987 435 Z M 2061 437 L 2297 431 L 2331 426 L 2378 426 L 2379 423 L 2302 418 L 2159 417 L 2159 419 L 2224 421 L 2227 425 L 2163 432 L 2061 435 Z M 1489 427 L 1681 424 L 1681 419 L 1688 417 L 1910 414 L 1511 417 L 1511 420 L 1524 420 L 1524 424 Z M 100 386 L 110 386 L 111 385 L 118 385 L 119 384 L 130 384 L 131 383 L 131 381 L 109 381 L 108 382 L 101 382 L 100 383 Z M 609 408 L 609 406 L 601 399 L 587 382 L 584 380 L 582 380 L 583 384 L 589 389 L 599 402 L 598 405 L 584 405 L 583 404 L 577 405 L 527 405 L 526 404 L 517 405 L 493 381 L 490 381 L 490 383 L 511 405 L 516 408 L 521 407 L 526 408 L 546 408 L 547 407 L 580 407 L 581 408 L 602 407 L 603 408 Z M 2918 360 L 2918 362 L 2941 362 L 2941 360 Z M 2756 360 L 2756 362 L 2785 362 L 2785 360 Z M 2296 360 L 2296 362 L 2322 362 L 2322 360 Z M 2241 360 L 2241 362 L 2275 362 L 2275 360 Z M 3161 359 L 3161 361 L 3251 361 L 3251 359 Z M 3124 359 L 3124 361 L 3156 361 L 3156 359 Z M 2707 359 L 2707 361 L 2708 362 L 2727 362 L 2727 360 L 2710 360 L 2709 359 Z M 1088 351 L 1088 353 L 1123 353 L 1123 351 Z M 738 351 L 738 353 L 774 353 L 774 351 Z M 1155 351 L 1155 353 L 1158 353 L 1159 354 L 1175 353 L 1176 352 L 1189 352 L 1189 350 L 1167 350 L 1166 351 Z M 1312 350 L 1312 352 L 1350 352 L 1351 353 L 1372 353 L 1374 352 L 1374 348 L 1372 348 L 1369 350 L 1363 350 L 1362 349 L 1360 349 L 1359 350 L 1317 350 L 1315 348 L 1313 348 Z M 3174 298 L 3174 300 L 3203 300 L 3203 298 Z M 3214 196 L 3214 198 L 3217 198 L 3218 197 L 3301 197 L 3301 195 L 3217 195 L 3216 196 Z M 2882 195 L 2882 197 L 2952 197 L 2953 198 L 2975 198 L 2975 196 L 2955 196 L 2954 195 Z M 3319 194 L 3319 196 L 3339 196 L 3339 194 Z M 2424 103 L 2424 105 L 2479 105 L 2479 103 Z M 3367 99 L 3367 101 L 3449 101 L 3449 99 Z M 3260 99 L 3260 101 L 3327 101 L 3327 99 Z M 3219 99 L 3219 101 L 3247 101 L 3247 99 Z M 2368 41 L 2368 43 L 2565 43 L 2565 41 Z" fill-rule="evenodd"/>
<path fill="#e94748" d="M 1956 419 L 1956 421 L 2003 421 L 2003 419 Z M 1652 440 L 1792 440 L 1833 435 L 2043 434 L 2090 430 L 1881 424 L 1898 421 L 1892 418 L 1688 418 L 1682 421 L 1689 426 L 1795 427 L 1819 431 L 1653 435 Z M 3452 299 L 3391 299 L 3391 302 L 3389 304 L 3386 304 L 3385 300 L 3381 301 L 3369 316 L 3364 320 L 3363 323 L 3356 332 L 3339 351 L 3339 358 L 3389 358 L 3390 357 L 3413 357 L 3415 356 L 3443 325 L 3445 320 L 3454 311 L 3455 307 L 3452 304 Z M 2519 199 L 2519 204 L 2521 209 L 2521 219 L 2522 220 L 2522 225 L 2523 226 L 2523 231 L 2524 232 L 2524 238 L 2525 239 L 2525 243 L 2526 244 L 2526 248 L 2527 249 L 2527 254 L 2528 255 L 2528 262 L 2529 263 L 2529 266 L 2531 266 L 2531 263 L 2530 262 L 2530 252 L 2529 251 L 2529 242 L 2528 241 L 2528 238 L 2527 237 L 2526 230 L 2525 229 L 2525 219 L 2524 218 L 2523 207 L 2521 203 L 2521 199 Z M 2710 353 L 2713 359 L 2786 359 L 2872 194 L 2954 194 L 2985 198 L 2989 229 L 2975 243 L 2921 350 L 2921 359 L 2997 359 L 3080 196 L 3076 160 L 3065 151 L 3058 155 L 3055 146 L 3028 142 L 2829 144 L 2804 185 L 2784 206 Z M 2784 143 L 2721 143 L 2603 282 L 2572 150 L 2567 160 L 2562 147 L 2530 148 L 2520 179 L 2511 147 L 2518 193 L 2521 181 L 2576 184 L 2597 287 L 2615 280 L 2687 187 L 2706 197 L 2729 190 L 2735 201 L 2529 431 L 2457 433 L 2543 348 L 2531 275 L 2536 346 L 2451 426 L 2452 436 L 2533 436 L 2749 196 Z M 3403 147 L 3398 141 L 3228 142 L 3227 147 L 3211 142 L 3202 152 L 3174 162 L 3171 157 L 3183 150 L 3172 154 L 3137 183 L 3105 227 L 3098 229 L 3099 238 L 3085 254 L 3064 300 L 3061 331 L 3066 341 L 3079 352 L 3099 358 L 3295 356 L 3331 307 L 3209 305 L 3165 298 L 3157 293 L 3155 281 L 3172 242 L 3205 197 L 3350 192 Z M 2562 53 L 2324 49 L 2550 54 L 2499 96 L 2330 97 L 2294 112 L 2216 108 L 2212 100 L 2232 80 L 2284 53 L 2248 65 L 2188 131 L 2169 179 L 2177 203 L 2219 225 L 2370 225 L 2380 251 L 2338 295 L 2146 298 L 2085 359 L 2332 359 L 2415 332 L 2466 270 L 2480 202 L 2464 182 L 2432 171 L 2293 168 L 2277 152 L 2280 137 L 2326 104 L 2499 102 Z" fill-rule="evenodd"/>
<path fill="#a5a2a1" d="M 2488 493 L 2488 490 L 2485 489 L 2486 484 L 2483 485 L 2436 485 L 2428 489 L 2411 488 L 2406 486 L 2383 487 L 2380 485 L 2369 487 L 2369 490 L 2371 492 L 2377 492 L 2379 490 L 2383 490 L 2384 491 L 2391 490 L 2393 492 L 2396 493 L 2403 493 L 2412 490 L 2420 491 L 2421 492 L 2443 492 L 2449 490 L 2462 490 L 2463 491 L 2482 490 L 2484 493 Z M 1652 464 L 1652 466 L 1675 466 L 1675 464 Z M 1587 464 L 1587 466 L 1631 466 L 1631 464 Z M 1460 463 L 1460 465 L 1491 465 L 1491 463 Z M 196 460 L 196 462 L 198 462 L 199 463 L 211 463 L 212 464 L 218 463 L 218 461 L 212 461 L 211 460 Z M 225 460 L 532 479 L 791 469 L 812 485 L 933 470 L 1528 492 L 2373 481 L 2354 463 Z M 2710 441 L 2707 442 L 2696 441 L 2690 443 L 2678 443 L 2677 444 L 2639 445 L 2639 448 L 2636 450 L 2632 450 L 2630 448 L 2630 445 L 2600 445 L 2599 448 L 2588 447 L 2585 450 L 2578 452 L 2577 459 L 2572 463 L 2572 465 L 2579 466 L 2585 460 L 2587 460 L 2591 465 L 2597 465 L 2598 462 L 2593 460 L 2593 458 L 2595 456 L 2600 457 L 2605 465 L 2610 465 L 2613 464 L 2614 462 L 2627 460 L 2628 458 L 2632 457 L 2643 457 L 2644 454 L 2651 454 L 2652 453 L 2670 454 L 2672 452 L 2672 448 L 2674 446 L 2710 445 Z M 1305 433 L 1305 435 L 1326 435 L 1326 433 Z M 1331 433 L 1331 435 L 1346 435 L 1346 433 L 1344 432 Z M 3009 429 L 3009 431 L 3013 433 L 3019 433 L 3022 430 L 3022 428 L 3013 428 L 3012 429 Z M 1637 439 L 1637 434 L 1603 433 L 1599 431 L 1600 428 L 1625 428 L 1625 426 L 1475 428 L 1380 432 L 1380 434 L 1384 435 L 1470 434 L 1495 437 Z M 3110 424 L 3106 424 L 3105 423 L 3102 423 L 3101 424 L 3071 424 L 3071 426 L 3075 426 L 3076 427 L 3086 427 L 3087 426 L 3090 426 L 3091 427 L 3096 428 L 3097 427 L 3108 427 L 3110 426 Z M 1331 353 L 1331 355 L 1350 355 L 1350 353 Z M 3265 302 L 3265 304 L 3295 304 L 3295 302 Z M 1236 246 L 1234 246 L 1232 250 L 1228 254 L 1228 259 L 1231 259 L 1232 258 L 1232 255 L 1236 250 Z M 530 245 L 515 245 L 514 246 L 509 246 L 505 248 L 500 248 L 499 249 L 485 249 L 481 252 L 475 253 L 474 254 L 474 256 L 481 256 L 486 252 L 488 252 L 489 253 L 497 253 L 498 252 L 505 252 L 511 249 L 529 248 L 530 247 Z M 1651 237 L 1649 237 L 1637 260 L 1631 258 L 1628 254 L 1624 254 L 1628 263 L 1634 265 L 1632 270 L 1629 270 L 1627 265 L 1621 263 L 1618 259 L 1616 259 L 1616 264 L 1612 265 L 1606 257 L 1600 259 L 1599 255 L 1597 255 L 1595 265 L 1592 264 L 1590 257 L 1586 256 L 1585 261 L 1589 268 L 1585 269 L 1580 264 L 1579 253 L 1577 253 L 1538 323 L 1533 338 L 1528 343 L 1528 345 L 1536 350 L 1536 354 L 1540 354 L 1541 349 L 1545 350 L 1545 354 L 1559 354 L 1560 349 L 1565 349 L 1566 354 L 1570 354 L 1571 349 L 1601 347 L 1601 345 L 1597 344 L 1598 339 L 1603 337 L 1603 329 L 1606 326 L 1606 322 L 1611 320 L 1612 316 L 1616 316 L 1618 310 L 1615 309 L 1615 306 L 1621 305 L 1619 299 L 1625 296 L 1623 291 L 1628 290 L 1634 281 L 1652 242 Z M 639 268 L 635 302 L 641 321 L 661 341 L 675 347 L 680 345 L 681 349 L 690 353 L 693 349 L 702 349 L 703 354 L 848 356 L 845 350 L 853 349 L 851 341 L 858 339 L 878 305 L 878 301 L 776 300 L 757 297 L 737 283 L 731 268 L 738 234 L 731 244 L 729 259 L 725 265 L 726 276 L 720 272 L 718 263 L 715 273 L 712 273 L 710 266 L 707 265 L 706 273 L 700 270 L 694 278 L 687 273 L 684 279 L 664 271 L 661 275 L 657 275 L 652 270 L 646 275 L 645 266 L 641 265 Z M 1434 230 L 1431 231 L 1427 242 L 1423 245 L 1423 248 L 1414 262 L 1411 262 L 1408 257 L 1400 261 L 1399 256 L 1396 255 L 1396 259 L 1389 263 L 1388 256 L 1384 255 L 1382 260 L 1372 266 L 1372 269 L 1368 271 L 1363 268 L 1363 259 L 1367 258 L 1368 261 L 1371 262 L 1372 258 L 1367 253 L 1367 249 L 1363 250 L 1362 255 L 1353 266 L 1352 271 L 1341 289 L 1340 294 L 1336 298 L 1326 321 L 1317 335 L 1319 338 L 1316 344 L 1317 349 L 1369 349 L 1374 346 L 1374 342 L 1376 340 L 1381 341 L 1391 323 L 1394 312 L 1397 309 L 1397 305 L 1401 301 L 1399 295 L 1404 294 L 1407 290 L 1423 255 L 1427 251 Z M 1314 227 L 1286 270 L 1280 269 L 1283 262 L 1275 263 L 1273 269 L 1271 263 L 1241 269 L 1222 260 L 1188 290 L 1166 298 L 1030 301 L 1022 294 L 1038 246 L 1020 274 L 1011 266 L 1008 276 L 1000 267 L 998 275 L 977 274 L 973 278 L 971 274 L 965 276 L 964 270 L 954 274 L 961 244 L 905 343 L 909 352 L 899 355 L 1158 356 L 1155 350 L 1190 349 L 1207 341 L 1215 345 L 1217 338 L 1228 338 L 1227 333 L 1235 334 L 1238 326 L 1244 328 L 1275 299 L 1295 269 Z M 251 237 L 244 244 L 243 250 L 238 252 L 239 259 L 234 260 L 231 269 L 224 265 L 224 268 L 219 270 L 219 259 L 215 260 L 209 273 L 200 271 L 199 266 L 184 265 L 184 259 L 173 268 L 172 263 L 175 262 L 173 251 L 172 261 L 156 272 L 154 266 L 158 260 L 163 261 L 160 252 L 163 251 L 173 230 L 171 227 L 137 288 L 132 291 L 132 297 L 121 312 L 119 320 L 109 335 L 112 340 L 106 342 L 93 365 L 96 372 L 89 372 L 92 375 L 92 381 L 89 382 L 91 389 L 97 389 L 101 381 L 139 382 L 140 376 L 147 380 L 153 378 L 153 372 L 158 375 L 157 369 L 165 363 L 170 363 L 169 368 L 180 361 L 179 356 L 187 348 L 192 349 L 189 346 L 190 342 L 196 343 L 223 291 L 239 267 L 239 260 L 242 259 Z M 347 226 L 370 256 L 383 265 L 383 271 L 432 323 L 438 323 L 436 328 L 459 352 L 466 352 L 463 357 L 469 364 L 472 361 L 477 363 L 489 376 L 487 382 L 493 380 L 517 404 L 598 404 L 582 384 L 584 377 L 575 376 L 579 371 L 569 370 L 559 358 L 561 353 L 471 258 L 460 275 L 453 273 L 447 265 L 432 268 L 427 263 L 416 267 L 412 260 L 403 259 L 413 268 L 412 272 L 406 271 L 394 261 L 395 254 L 390 256 L 394 266 L 391 269 L 351 226 Z M 1805 223 L 1796 231 L 1796 235 L 1784 251 L 1778 249 L 1775 245 L 1770 250 L 1767 248 L 1767 243 L 1765 243 L 1764 249 L 1766 254 L 1761 262 L 1757 260 L 1757 249 L 1755 249 L 1750 258 L 1732 255 L 1726 261 L 1719 261 L 1718 257 L 1722 254 L 1721 248 L 1723 242 L 1727 240 L 1727 237 L 1725 237 L 1717 252 L 1713 255 L 1711 264 L 1706 269 L 1705 275 L 1690 299 L 1681 317 L 1681 321 L 1666 346 L 1672 349 L 1729 348 L 1730 353 L 1734 353 L 1734 350 L 1740 346 L 1743 339 L 1748 342 L 1749 338 L 1745 337 L 1746 331 L 1749 330 L 1752 333 L 1751 324 L 1756 323 L 1755 318 L 1760 316 L 1786 265 L 1786 260 L 1791 255 Z M 1969 215 L 1953 238 L 1944 260 L 1924 292 L 1914 317 L 1915 338 L 1918 340 L 1921 337 L 1923 341 L 1920 344 L 1927 349 L 1931 349 L 1932 345 L 1941 345 L 1941 351 L 1994 353 L 2006 350 L 2006 344 L 2011 344 L 2012 349 L 2016 349 L 2052 329 L 2050 323 L 2052 321 L 2059 323 L 2077 303 L 2033 302 L 2021 298 L 2011 287 L 2011 269 L 2027 238 L 2033 219 L 2027 224 L 2023 236 L 2018 239 L 2016 246 L 2012 246 L 2011 251 L 1999 242 L 1999 252 L 1992 255 L 1992 247 L 1986 244 L 1985 250 L 1980 252 L 1976 243 L 1970 256 L 1962 251 L 1958 259 L 1953 258 L 1955 244 L 1971 218 Z M 2339 44 L 2339 46 L 2366 46 L 2366 44 Z M 1093 40 L 1093 42 L 1103 41 L 1107 42 L 1284 42 L 1284 40 L 1276 39 Z M 836 40 L 836 42 L 986 42 L 987 41 L 993 42 L 992 39 L 984 39 L 983 40 L 949 40 L 948 39 L 852 39 L 848 40 L 847 39 L 838 39 Z M 213 39 L 225 42 L 627 43 L 625 40 Z" fill-rule="evenodd"/>
<path fill="#d3d0cf" d="M 1600 429 L 1600 431 L 1618 433 L 1795 431 L 1795 429 L 1748 428 Z M 709 356 L 709 358 L 734 358 L 734 356 Z M 1940 352 L 1940 354 L 1942 355 L 1971 355 L 1971 353 L 1948 353 L 1947 352 Z M 1911 317 L 1910 329 L 1911 330 L 1911 335 L 1913 335 L 1913 317 Z M 883 296 L 879 296 L 874 298 L 861 298 L 860 297 L 856 297 L 855 298 L 842 298 L 841 297 L 788 297 L 788 299 L 833 299 L 834 300 L 848 300 L 849 301 L 853 301 L 854 300 L 862 300 L 863 301 L 878 300 L 879 301 L 879 304 L 881 304 L 881 302 L 883 300 Z M 1023 292 L 1024 295 L 1025 295 L 1030 300 L 1033 301 L 1036 300 L 1129 300 L 1130 299 L 1141 299 L 1144 298 L 1144 296 L 1139 296 L 1138 297 L 1120 297 L 1119 298 L 1094 298 L 1093 297 L 1055 297 L 1054 298 L 1047 297 L 1046 298 L 1043 298 L 1042 297 L 1034 297 L 1033 296 L 1030 296 L 1025 292 Z M 2137 301 L 2140 301 L 2145 296 L 2153 295 L 2164 296 L 2336 294 L 2338 293 L 2338 291 L 2149 291 L 2148 294 L 2142 292 Z M 1568 264 L 1566 264 L 1563 272 L 1559 277 L 1559 279 L 1561 279 L 1561 278 L 1566 273 L 1566 270 L 1567 269 Z M 734 260 L 732 265 L 732 268 L 734 271 L 734 273 L 736 273 L 736 260 Z M 1710 258 L 1707 258 L 1707 262 L 1704 265 L 1703 267 L 1703 271 L 1702 273 L 1699 275 L 1699 278 L 1701 278 L 1704 275 L 1705 269 L 1707 266 L 1710 264 Z M 749 199 L 715 197 L 674 198 L 668 203 L 662 215 L 656 215 L 656 222 L 652 225 L 647 235 L 647 240 L 643 244 L 640 255 L 635 262 L 634 277 L 631 284 L 631 301 L 636 316 L 638 314 L 634 302 L 634 291 L 638 268 L 641 264 L 646 266 L 646 274 L 649 274 L 652 269 L 657 274 L 661 274 L 661 271 L 664 270 L 665 272 L 671 272 L 680 278 L 684 278 L 687 272 L 690 272 L 692 277 L 700 269 L 706 272 L 707 264 L 711 266 L 712 272 L 715 272 L 715 263 L 718 262 L 723 275 L 726 275 L 724 265 L 728 259 L 730 244 L 735 234 L 738 233 L 739 240 L 734 249 L 734 254 L 736 254 L 737 247 L 741 244 L 741 238 L 746 232 L 746 225 L 750 221 L 749 215 L 753 214 Z M 1331 198 L 1324 196 L 1323 198 L 1275 197 L 1258 199 L 1256 204 L 1251 208 L 1251 215 L 1245 215 L 1246 221 L 1243 222 L 1240 226 L 1231 245 L 1225 251 L 1224 255 L 1219 258 L 1217 265 L 1220 265 L 1220 261 L 1222 259 L 1225 259 L 1226 264 L 1231 264 L 1234 267 L 1240 266 L 1241 268 L 1247 268 L 1248 266 L 1255 266 L 1260 264 L 1266 265 L 1271 262 L 1271 268 L 1273 268 L 1274 263 L 1276 261 L 1283 261 L 1284 264 L 1281 266 L 1281 269 L 1288 268 L 1298 246 L 1302 243 L 1302 240 L 1309 231 L 1309 229 L 1314 226 L 1315 230 L 1309 238 L 1308 245 L 1312 244 L 1312 240 L 1316 235 L 1317 228 L 1321 226 L 1322 218 L 1326 214 L 1326 208 L 1332 204 Z M 1060 197 L 984 197 L 983 203 L 977 204 L 977 209 L 971 211 L 971 218 L 963 227 L 963 235 L 957 238 L 958 244 L 954 246 L 952 251 L 950 251 L 951 258 L 947 261 L 947 265 L 942 267 L 943 272 L 947 270 L 951 258 L 955 255 L 955 250 L 959 243 L 963 243 L 964 247 L 957 256 L 959 265 L 955 268 L 955 274 L 958 274 L 962 269 L 964 269 L 965 275 L 971 273 L 973 277 L 976 277 L 977 273 L 983 273 L 985 276 L 990 276 L 992 272 L 998 274 L 999 267 L 1003 266 L 1005 274 L 1008 275 L 1011 265 L 1014 265 L 1018 271 L 1020 271 L 1030 255 L 1034 254 L 1035 260 L 1037 260 L 1040 255 L 1040 250 L 1044 245 L 1052 224 L 1055 221 L 1054 216 L 1057 212 L 1060 212 Z M 155 270 L 158 271 L 160 267 L 165 266 L 171 261 L 173 250 L 176 251 L 176 262 L 173 263 L 173 267 L 184 258 L 184 264 L 199 265 L 200 270 L 209 272 L 209 269 L 214 264 L 214 260 L 219 258 L 219 269 L 222 269 L 224 264 L 226 264 L 228 268 L 231 268 L 233 260 L 238 259 L 237 251 L 242 250 L 243 244 L 246 243 L 247 238 L 256 226 L 259 227 L 256 235 L 260 233 L 261 227 L 268 219 L 268 215 L 273 211 L 273 206 L 269 205 L 270 198 L 186 197 L 171 214 L 167 229 L 163 232 L 161 237 L 158 237 L 157 243 L 152 248 L 151 257 L 153 257 L 158 250 L 159 243 L 164 235 L 168 232 L 169 228 L 173 226 L 174 230 L 170 239 L 166 243 L 164 251 L 161 252 L 164 261 L 158 261 Z M 605 195 L 597 198 L 517 198 L 505 205 L 481 209 L 331 208 L 328 213 L 381 274 L 386 275 L 382 265 L 369 256 L 353 233 L 346 229 L 347 225 L 351 225 L 391 268 L 389 256 L 395 253 L 395 261 L 406 270 L 412 271 L 412 268 L 402 261 L 403 258 L 412 259 L 416 266 L 427 262 L 432 267 L 447 264 L 457 274 L 463 269 L 476 274 L 465 269 L 467 259 L 471 257 L 478 267 L 482 267 L 478 260 L 490 260 L 492 254 L 474 257 L 475 252 L 515 244 L 531 245 L 529 249 L 506 252 L 515 254 L 563 239 L 577 228 L 583 228 L 603 207 Z M 1449 194 L 1443 194 L 1441 190 L 1438 190 L 1434 193 L 1432 193 L 1430 190 L 1422 190 L 1421 195 L 1418 197 L 1415 197 L 1412 193 L 1405 196 L 1391 195 L 1385 198 L 1385 204 L 1379 211 L 1371 226 L 1371 229 L 1366 235 L 1365 240 L 1359 247 L 1359 253 L 1355 258 L 1355 260 L 1357 260 L 1361 255 L 1362 250 L 1367 248 L 1368 253 L 1373 258 L 1373 261 L 1369 263 L 1367 259 L 1364 259 L 1364 268 L 1359 269 L 1359 277 L 1356 278 L 1356 281 L 1358 281 L 1359 278 L 1363 275 L 1364 268 L 1370 270 L 1371 265 L 1377 261 L 1380 261 L 1384 254 L 1389 256 L 1389 262 L 1395 259 L 1396 254 L 1400 256 L 1400 260 L 1408 256 L 1411 261 L 1414 261 L 1418 252 L 1422 248 L 1422 245 L 1426 242 L 1430 231 L 1432 229 L 1435 230 L 1432 240 L 1434 240 L 1436 233 L 1440 229 L 1440 224 L 1445 213 L 1451 206 L 1455 204 L 1455 201 Z M 2053 185 L 1973 186 L 1973 189 L 1975 191 L 1975 197 L 1971 201 L 1970 207 L 1966 210 L 1963 215 L 1963 220 L 1966 220 L 1969 214 L 1972 215 L 1972 218 L 1968 221 L 1968 225 L 1962 233 L 1961 239 L 1956 244 L 1957 250 L 1953 257 L 1958 258 L 1962 250 L 1964 250 L 1967 255 L 1970 255 L 1970 251 L 1974 248 L 1976 242 L 1979 243 L 1980 251 L 1984 250 L 1984 245 L 1986 243 L 1992 244 L 1992 254 L 1996 254 L 1998 252 L 1999 241 L 2002 241 L 2007 246 L 2008 250 L 2011 250 L 2011 246 L 2013 244 L 2017 244 L 2017 239 L 2022 236 L 2022 231 L 2025 230 L 2026 224 L 2029 220 L 2033 218 L 2034 221 L 2032 225 L 2034 225 L 2040 215 L 2043 213 L 2044 206 L 2048 202 L 2048 195 L 2051 193 Z M 1827 186 L 1764 185 L 1758 187 L 1753 185 L 1746 192 L 1741 192 L 1741 199 L 1735 204 L 1735 210 L 1731 211 L 1731 218 L 1723 227 L 1723 231 L 1719 235 L 1719 242 L 1715 244 L 1715 249 L 1711 252 L 1711 254 L 1716 252 L 1719 242 L 1727 236 L 1728 240 L 1724 242 L 1722 248 L 1723 254 L 1719 257 L 1719 260 L 1726 260 L 1732 254 L 1738 254 L 1741 257 L 1750 257 L 1754 249 L 1757 248 L 1759 251 L 1758 260 L 1761 261 L 1762 256 L 1765 254 L 1763 249 L 1763 244 L 1765 242 L 1768 243 L 1768 248 L 1772 248 L 1772 245 L 1775 244 L 1778 248 L 1784 250 L 1788 246 L 1789 241 L 1795 235 L 1795 231 L 1803 222 L 1805 222 L 1805 228 L 1797 241 L 1797 243 L 1799 243 L 1808 228 L 1809 222 L 1812 220 L 1815 208 L 1820 204 L 1822 197 L 1827 190 Z M 1676 188 L 1673 187 L 1668 189 L 1665 186 L 1632 187 L 1621 186 L 1619 184 L 1608 187 L 1608 190 L 1602 195 L 1602 202 L 1599 208 L 1592 214 L 1587 229 L 1579 240 L 1579 244 L 1571 259 L 1573 259 L 1576 253 L 1579 252 L 1582 265 L 1585 268 L 1588 268 L 1584 261 L 1585 256 L 1589 255 L 1593 264 L 1595 264 L 1596 255 L 1599 254 L 1600 258 L 1606 256 L 1612 264 L 1615 264 L 1615 259 L 1618 258 L 1621 262 L 1627 264 L 1629 269 L 1632 269 L 1633 265 L 1627 263 L 1623 257 L 1623 254 L 1628 253 L 1631 257 L 1637 259 L 1648 237 L 1651 236 L 1653 238 L 1653 242 L 1647 254 L 1646 260 L 1648 260 L 1656 241 L 1660 237 L 1665 222 L 1669 215 L 1673 212 L 1673 206 L 1680 200 L 1680 197 L 1676 194 Z M 2287 161 L 2287 163 L 2292 166 L 2303 168 L 2372 168 L 2373 169 L 2436 170 L 2445 172 L 2467 181 L 2465 176 L 2447 168 L 2428 166 L 2422 164 L 2292 163 Z M 2794 193 L 2801 187 L 2821 150 L 2832 140 L 3041 141 L 3055 144 L 3076 157 L 3080 165 L 3079 182 L 3082 180 L 3083 166 L 3079 155 L 3073 148 L 3052 139 L 3026 136 L 2828 136 L 2814 154 Z M 2789 136 L 2773 136 L 2772 137 L 2769 136 L 2719 136 L 2717 137 L 2693 164 L 2693 166 L 2688 173 L 2686 174 L 2681 182 L 2678 184 L 2677 187 L 2672 192 L 2672 194 L 2668 197 L 2668 200 L 2671 199 L 2672 195 L 2689 178 L 2695 168 L 2701 162 L 2703 158 L 2719 142 L 2723 140 L 2786 140 L 2789 141 Z M 2515 198 L 2517 198 L 2517 190 L 2516 189 L 2516 184 L 2513 174 L 2513 167 L 2512 166 L 2512 162 L 2510 156 L 2510 150 L 2508 146 L 2509 142 L 2511 140 L 2568 140 L 2572 143 L 2574 143 L 2573 137 L 2559 137 L 2558 136 L 2555 136 L 2554 137 L 2510 137 L 2509 136 L 2502 136 L 2502 138 L 2506 145 L 2506 150 L 2509 159 L 2509 169 L 2511 176 L 2513 179 L 2513 189 L 2514 190 Z M 3409 135 L 3213 136 L 3196 139 L 3173 147 L 3143 167 L 3122 191 L 3113 208 L 3117 206 L 3141 176 L 3164 157 L 3181 148 L 3206 140 L 3409 140 Z M 1736 72 L 1735 81 L 1739 81 L 1740 80 L 1740 72 Z M 2246 63 L 2241 64 L 2238 67 L 2235 68 L 2232 71 L 2229 72 L 2225 75 L 2225 76 L 2222 78 L 2201 100 L 2200 103 L 2195 108 L 2189 117 L 2185 127 L 2181 131 L 2181 135 L 2178 139 L 2178 143 L 2177 144 L 2176 149 L 2178 149 L 2179 148 L 2181 143 L 2181 140 L 2184 137 L 2186 130 L 2189 127 L 2197 112 L 2201 108 L 2203 104 L 2219 86 L 2220 86 L 2227 79 L 2228 79 L 2230 76 L 2234 74 L 2236 71 L 2246 65 Z M 2125 56 L 2047 57 L 2043 63 L 2042 68 L 2038 72 L 2037 78 L 2032 83 L 2032 88 L 2028 93 L 2027 97 L 2024 99 L 2024 102 L 2026 102 L 2030 98 L 2033 92 L 2036 92 L 2038 97 L 2040 97 L 2041 91 L 2038 91 L 2036 89 L 2036 86 L 2041 85 L 2044 80 L 2047 81 L 2047 89 L 2054 90 L 2057 96 L 2063 96 L 2063 93 L 2066 92 L 2067 94 L 2072 95 L 2073 100 L 2075 100 L 2075 96 L 2071 94 L 2071 91 L 2073 89 L 2075 89 L 2078 93 L 2081 93 L 2084 98 L 2086 98 L 2085 94 L 2086 89 L 2094 89 L 2099 92 L 2102 92 L 2101 83 L 2105 82 L 2107 84 L 2112 84 L 2113 79 L 2117 77 L 2118 75 L 2117 71 L 2115 70 L 2115 66 L 2118 65 L 2122 67 L 2125 61 Z M 2000 57 L 1859 57 L 1851 59 L 1842 64 L 1828 68 L 1827 72 L 1821 70 L 1818 77 L 1813 77 L 1807 85 L 1803 85 L 1802 89 L 1809 88 L 1810 92 L 1808 94 L 1802 94 L 1805 100 L 1802 108 L 1806 106 L 1806 102 L 1814 95 L 1817 96 L 1817 103 L 1823 104 L 1825 98 L 1831 99 L 1835 103 L 1843 102 L 1847 104 L 1851 102 L 1851 96 L 1856 93 L 1859 94 L 1856 101 L 1858 101 L 1866 95 L 1873 96 L 1876 93 L 1896 95 L 1901 92 L 1909 92 L 1910 95 L 1912 95 L 1913 90 L 1954 91 L 1958 89 L 1960 92 L 1963 92 L 1965 89 L 1977 89 L 1983 81 L 1989 81 L 1989 73 L 1993 72 L 1992 65 L 1998 64 Z M 1751 57 L 1750 56 L 1748 56 L 1747 57 L 1689 57 L 1688 58 L 1686 58 L 1683 61 L 1678 62 L 1677 64 L 1674 64 L 1675 71 L 1673 73 L 1668 73 L 1667 74 L 1667 78 L 1669 82 L 1671 82 L 1673 80 L 1675 80 L 1677 82 L 1677 84 L 1679 84 L 1680 80 L 1681 79 L 1683 79 L 1685 77 L 1690 77 L 1695 81 L 1700 80 L 1701 78 L 1705 75 L 1709 75 L 1711 77 L 1714 77 L 1716 75 L 1719 75 L 1720 77 L 1723 77 L 1724 76 L 1729 77 L 1730 76 L 1729 71 L 1730 70 L 1735 70 L 1735 64 L 1736 63 L 1741 63 L 1742 64 L 1742 71 L 1745 71 L 1748 65 L 1751 63 Z M 2305 47 L 2291 47 L 2286 49 L 2279 49 L 2277 50 L 2276 52 L 2268 52 L 2263 55 L 2257 56 L 2253 59 L 2253 61 L 2260 59 L 2267 55 L 2272 55 L 2274 54 L 2275 52 L 2291 51 L 2292 50 L 2296 50 L 2297 49 L 2305 49 Z M 2320 46 L 2320 48 L 2338 48 L 2338 46 Z M 1037 92 L 1045 85 L 1050 86 L 1051 81 L 1056 79 L 1058 88 L 1187 88 L 1208 92 L 1259 88 L 1267 91 L 1271 88 L 1273 93 L 1282 88 L 1284 93 L 1315 90 L 1327 95 L 1340 94 L 1347 97 L 1347 92 L 1356 81 L 1356 74 L 1349 59 L 1323 44 L 1299 37 L 1277 37 L 1284 39 L 1284 43 L 1093 43 L 1093 39 L 1100 37 L 1062 37 L 1062 45 L 1058 47 L 1052 65 L 1041 80 Z M 949 37 L 949 39 L 983 39 L 983 37 Z M 732 99 L 736 94 L 739 94 L 742 99 L 744 93 L 751 98 L 753 95 L 767 96 L 785 91 L 811 95 L 813 92 L 822 93 L 824 89 L 829 89 L 830 92 L 839 89 L 840 93 L 843 93 L 846 89 L 859 91 L 863 88 L 871 91 L 916 87 L 959 87 L 977 85 L 979 81 L 986 86 L 1001 77 L 1001 73 L 998 72 L 1000 65 L 1003 66 L 1003 70 L 1008 68 L 1007 61 L 1021 38 L 993 37 L 993 43 L 836 43 L 837 37 L 805 41 L 803 45 L 793 44 L 791 48 L 781 49 L 778 53 L 755 63 L 753 70 L 747 71 L 746 75 L 738 80 L 737 85 L 732 85 L 731 89 L 736 91 Z M 180 37 L 180 42 L 189 44 L 211 69 L 227 75 L 225 86 L 237 82 L 238 86 L 263 90 L 373 95 L 448 91 L 498 95 L 528 89 L 636 94 L 642 90 L 645 96 L 659 98 L 656 88 L 666 92 L 669 75 L 662 54 L 653 45 L 631 37 L 603 36 L 625 39 L 627 44 L 213 42 L 211 36 L 200 43 L 198 37 Z" fill-rule="evenodd"/>
<path fill="#f7f7f7" d="M 321 144 L 204 148 L 70 395 L 97 394 L 77 391 L 84 370 L 89 369 L 175 207 L 188 195 L 269 196 L 274 211 L 193 354 L 158 380 L 101 394 L 157 383 L 192 360 L 284 198 Z M 1598 136 L 1445 136 L 1414 150 L 1387 182 L 1298 362 L 1307 360 L 1310 340 L 1385 197 L 1441 189 L 1456 204 L 1446 213 L 1378 357 L 1314 357 L 1311 361 L 1377 363 L 1469 185 L 1576 183 Z M 1717 135 L 1630 135 L 1626 139 L 1611 169 L 1602 181 L 1594 202 L 1578 228 L 1549 289 L 1542 297 L 1533 321 L 1513 360 L 1602 359 L 1621 323 L 1621 317 L 1625 314 L 1650 263 L 1657 255 L 1657 249 L 1661 246 L 1670 225 L 1677 216 L 1689 190 L 1693 187 L 1693 182 L 1698 178 Z M 2137 52 L 2045 53 L 2014 100 L 2001 129 L 1992 136 L 1967 136 L 1958 147 L 1939 184 L 1963 184 L 1968 193 L 1907 315 L 1906 336 L 1915 350 L 1939 359 L 2019 355 L 2054 336 L 2094 294 L 2031 292 L 2017 282 L 2059 185 L 2128 183 L 2153 135 L 2096 137 L 2092 133 Z M 2010 52 L 1860 52 L 1830 60 L 1811 72 L 1785 100 L 1758 144 L 1652 360 L 1745 359 L 1834 186 L 1910 183 L 1936 138 L 1859 135 L 1868 110 L 1979 107 Z M 1644 99 L 1737 99 L 1739 90 L 1742 87 L 1743 83 L 1745 81 L 1748 74 L 1753 68 L 1753 66 L 1757 63 L 1756 57 L 1760 56 L 1762 54 L 1762 52 L 1689 52 L 1683 55 L 1679 55 L 1671 59 L 1661 69 L 1661 72 L 1650 87 L 1648 94 L 1644 97 Z M 1361 66 L 1302 32 L 1061 32 L 1020 107 L 1240 107 L 1265 116 L 1273 136 L 1226 243 L 1187 283 L 1026 284 L 1027 293 L 1178 291 L 1217 262 L 1260 197 L 1332 197 L 1313 244 L 1260 320 L 1193 356 L 896 360 L 976 204 L 1061 197 L 1031 279 L 1101 146 L 1004 144 L 888 363 L 1166 363 L 1239 339 L 1292 287 L 1345 191 L 1373 115 Z M 157 32 L 202 66 L 229 114 L 548 120 L 553 148 L 515 192 L 313 205 L 508 414 L 629 415 L 587 371 L 616 413 L 511 412 L 327 210 L 605 194 L 565 239 L 479 260 L 583 369 L 491 265 L 568 243 L 625 191 L 677 84 L 660 44 L 632 32 Z M 1032 31 L 824 32 L 780 44 L 741 68 L 690 132 L 630 260 L 626 301 L 645 338 L 671 355 L 709 363 L 852 363 L 893 291 L 773 292 L 753 287 L 741 275 L 746 241 L 795 144 L 821 120 L 855 107 L 987 107 Z" fill-rule="evenodd"/>
</svg>